# xmcd CD database file
#
# Track frame offsets:
#	150
#	30537
#	50935
#	63377
#	88985
#	103040
#	124782
#	138852
#	155222
#	168527
#	194702
#	227967
#	240837
#
# Disc length: 3514 seconds
#
# Revision: 0
# Processed by: cddbd v1.5.1PL2 Copyright (c) Steve Scherf et al.
# Submitted via: CDex 1.51
#
DISCID=bd0db80d
DTITLE=Tommy McCoy - Love N Money
DYEAR=1999
DGENRE=Country
TTITLE0=Money (Waters)
TTITLE1=It's These Blues
TTITLE2=Money (That's What I Want)
TTITLE3=Love N Money
TTITLE4=No Love Without Any Green
TTITLE5=Gimme A Little Sign
TTITLE6=Poverty
TTITLE7=Ain't Gonna Take No Mo'
TTITLE8=She Worships Money
TTITLE9=Ace In The Hole
TTITLE10=The Change Is In
TTITLE11=Broke ... You're A Joke
TTITLE12=Bonus: Con Man
EXTD=YEAR: 1999
EXTT0=
EXTT1=
EXTT2=
EXTT3=
EXTT4=
EXTT5=
EXTT6=
EXTT7=
EXTT8=
EXTT9=
EXTT10=
EXTT11=
EXTT12=
PLAYORDER=
